<svg width="24" height="24" viewBox="0 0 24 24" fill="none" xmlns="http://www.w3.org/2000/svg">
<path d="M1.38278 2.66667C1.38278 2.35725 1.5057 2.0605 1.72449 1.84171C1.94328 1.62292 2.24003 1.5 2.54945 1.5H21.2161C21.5255 1.5 21.8223 1.62292 22.0411 1.84171C22.2599 2.0605 22.3828 2.35725 22.3828 2.66667V5.68367C22.3827 5.99306 22.2598 6.28976 22.0409 6.5085L14.5579 13.9915C14.3391 14.2102 14.2162 14.5069 14.2161 14.8163V17.8333L9.54945 22.5V14.8163C9.54938 14.5069 9.42642 14.2102 9.20761 13.9915L1.72462 6.5085C1.50581 6.28976 1.38285 5.99306 1.38278 5.68367V2.66667Z" stroke="black" stroke-width="2" stroke-linecap="round" stroke-linejoin="round"/>
</svg>
