<svg width="22" height="22" viewBox="0 0 22 22" fill="none" xmlns="http://www.w3.org/2000/svg">
<path d="M11.8333 7.5L15.0833 10.75M15.0833 10.75L11.8333 14M15.0833 10.75H6.41667M20.5 10.75C20.5 12.0304 20.2478 13.2982 19.7578 14.4812C19.2678 15.6641 18.5497 16.7389 17.6443 17.6443C16.7389 18.5497 15.6641 19.2678 14.4812 19.7578C13.2982 20.2478 12.0304 20.5 10.75 20.5C9.46961 20.5 8.20176 20.2478 7.01884 19.7578C5.83591 19.2678 4.76108 18.5497 3.85571 17.6443C2.95034 16.7389 2.23216 15.6641 1.74217 14.4812C1.25219 13.2982 1 12.0304 1 10.75C1 8.16414 2.02723 5.68419 3.85571 3.85571C5.68419 2.02723 8.16414 1 10.75 1C13.3359 1 15.8158 2.02723 17.6443 3.85571C19.4728 5.68419 20.5 8.16414 20.5 10.75Z" stroke="black" stroke-width="2" stroke-linecap="round" stroke-linejoin="round"/>
</svg>
