<svg width="23" height="20" viewBox="0 0 23 20" fill="none" xmlns="http://www.w3.org/2000/svg">
<path d="M1.4 0.200134C1.0287 0.200134 0.672601 0.347634 0.41005 0.610185C0.147499 0.872736 0 1.22883 0 1.60013C0 1.97144 0.147499 2.32753 0.41005 2.59008C0.672601 2.85263 1.0287 3.00013 1.4 3.00013H16.8C17.1713 3.00013 17.5274 2.85263 17.7899 2.59008C18.0525 2.32753 18.2 1.97144 18.2 1.60013C18.2 1.22883 18.0525 0.872736 17.7899 0.610185C17.5274 0.347634 17.1713 0.200134 16.8 0.200134H1.4ZM1.4 5.80013C1.0287 5.80013 0.672601 5.94763 0.41005 6.21019C0.147499 6.47274 0 6.82883 0 7.20013C0 7.57144 0.147499 7.92753 0.41005 8.19008C0.672601 8.45263 1.0287 8.60013 1.4 8.60013H11.2C11.5713 8.60013 11.9274 8.45263 12.1899 8.19008C12.4525 7.92753 12.6 7.57144 12.6 7.20013C12.6 6.82883 12.4525 6.47274 12.1899 6.21019C11.9274 5.94763 11.5713 5.80013 11.2 5.80013H1.4ZM1.4 11.4001C1.0287 11.4001 0.672601 11.5476 0.41005 11.8102C0.147499 12.0727 0 12.4288 0 12.8001C0 13.1714 0.147499 13.5275 0.41005 13.7901C0.672601 14.0526 1.0287 14.2001 1.4 14.2001H7C7.3713 14.2001 7.7274 14.0526 7.98995 13.7901C8.2525 13.5275 8.4 13.1714 8.4 12.8001C8.4 12.4288 8.2525 12.0727 7.98995 11.8102C7.7274 11.5476 7.3713 11.4001 7 11.4001H1.4ZM18.2 7.20013C18.2 6.82883 18.0525 6.47274 17.7899 6.21019C17.5274 5.94763 17.1713 5.80013 16.8 5.80013C16.4287 5.80013 16.0726 5.94763 15.81 6.21019C15.5475 6.47274 15.4 6.82883 15.4 7.20013V15.0205L13.5898 13.2103C13.3258 12.9553 12.9721 12.8142 12.605 12.8174C12.238 12.8206 11.8868 12.9678 11.6273 13.2274C11.3677 13.487 11.2204 13.8381 11.2173 14.2052C11.2141 14.5722 11.3552 14.9259 11.6102 15.1899L15.8102 19.3899C16.0727 19.6524 16.4288 19.7998 16.8 19.7998C17.1712 19.7998 17.5273 19.6524 17.7898 19.3899L21.9898 15.1899C22.2448 14.9259 22.3859 14.5722 22.3827 14.2052C22.3796 13.8381 22.2323 13.487 21.9727 13.2274C21.7132 12.9678 21.362 12.8206 20.995 12.8174C20.6279 12.8142 20.2742 12.9553 20.0102 13.2103L18.2 15.0205V7.20013Z" fill="black"/>
</svg>
